<svg id="Layer_1" data-name="Layer 1" xmlns="http://www.w3.org/2000/svg" viewBox="0 0 3001 1501"><defs><style>.cls-1{fill:#fefefe;}.cls-2{fill:#919191;}.cls-3{fill:#d4d4d4;}.cls-4{fill:#fbfbfb;}.cls-5{fill:#fcfcfc;}.cls-6{fill:#020202;}.cls-12,.cls-19,.cls-7,.cls-8{fill:none;}.cls-11,.cls-7{stroke:#000;}.cls-11,.cls-12,.cls-19,.cls-7,.cls-8{stroke-miterlimit:10;}.cls-8{stroke:#ed1c24;}.cls-9{font-size:30px;}.cls-17,.cls-9{font-family:Helvetica-Bold, Helvetica;font-weight:700;}.cls-10{font-family:Helvetica-BoldOblique, Helvetica;font-style:oblique;}.cls-12{stroke:#666;stroke-width:2px;}.cls-13,.cls-14,.cls-17{font-size:20px;}.cls-14{font-family:KoreanGD15-R-KSCpc-EUC-H, KoreanGD15R;}.cls-15{font-family:Helvetica-Light, Helvetica;font-weight:300;}.cls-16{letter-spacing:-0.04em;}.cls-18{letter-spacing:-0.09em;}.cls-19{stroke:#fff;}</style></defs><title>map</title><path d="M1512.48,620.49c1.2-7.66,1-15.4,1.24-23.11.1-3.53,1-4.74,4.82-4.75,18.31,0,36.61-.53,54.91-.67,3.15,0,4.28-.64,4.27-4.11q-.17-109.64,0-219.26c0-3.31-.84-4.17-4.16-4.17-54.5.11-109,0-163.49.16-3.7,0-4.94-.72-4.91-4.73.21-26.05,0-52.11.2-78.16,0-3.63-1.06-4.31-4.47-4.3q-135,.14-270,0c-3.61,0-5.74.87-8.07,3.9-12.9,16.72-26.14,33.17-39.38,49.62a12,12,0,0,0-2.87,8c-.06,14.78-.31,29.57-.61,44.35a7.83,7.83,0,0,0,2.44,6.33q25.35,25.13,50.49,50.48a7.53,7.53,0,0,0,5.94,2.39c11-.1,22,0,33-.09,2.7,0,3.7.62,3.49,3.57a126.67,126.67,0,0,0-.07,13.78c.07,1.72-.47,2.32-2,2.32-1.27,0-2.54,0-3.81,0-33.51,0-67,.07-100.54-.09-4.09,0-5.5.73-5.43,5.25q.86,58.93,1.12,117.86c0,3.87,1.06,4.87,4.9,4.9q125.88.79,251.77,1.75c4.14,0,5.44.81,5.32,5.26-.59,21.39-.76,42.8-1.09,64.2,0,1.27,0,2.53-.13,3.8,0,.82,0,1.81-1.19,1.85s-1.23-.92-1.27-1.77,0-1.41,0-2.11c.32-21.26.55-42.52,1.06-63.78.09-3.82-.83-4.9-4.77-4.93q-125.69-.78-251.35-1.85c-6.78,0-5.64.22-5.69-5.66q-1.41-152.08-2.65-304.16c0-1.31-2.39-5.42,2.59-4,2.93,1.32,2.13,4.06,2.14,6.27.14,16.9,0,33.8.08,50.7.08,32.38,1.35,64.74.87,97.13-.09,6.19,1.26,7.44,7.44,7.46q23.23.08,46.47,0c1.47,0,3.46.6,4.18-1.12s-1.11-2.73-2.15-3.77q-20.7-20.82-41.54-41.5a13.66,13.66,0,0,1-4.31-10.45c-.08-15.63.6-31.26-.37-46.88-.15-2.48,1.32-4.24,2.7-6,10.66-13.65,21.61-27.07,32.39-40.62,1.4-1.77,2.81-3.53,4.11-5.37.78-1.1,2.09-2.23,1.23-3.75-.71-1.26-2.2-1-3.46-1.08-1.54-.05-3.09,0-4.64,0-12.82,0-25.63,0-38.45,0-2.38,0-4.86.18-6.57-2,0-1.22-.3-2.68,1.75-2.55,1,.06,2,0,3,0q167.92,0,335.85-.12c4.48,0,5.17,1.33,5.14,5.36-.18,25.91,0,51.83-.17,77.73,0,3.39,1,4.14,4.2,4.14,54.5-.1,109,0,163.49-.16,3.76,0,4.87.83,4.86,4.77q-.18,129.9-.21,259.8c0,4.45,1.29,5.16,5.35,5.16q175.32-.17,350.64-.19c4,0,5.06.92,5,5q-.24,81.12,0,162.22c0,4.65-1.46,5.33-5.61,5.32q-178.27-.15-356.55-.1c-2.42,0-4.53.24-6.64,1.87q-73.36,56.65-146.84,113.16c-.33.26-.62.57-1.25,1.13.73.84,3.31.34,2.4,2.28-.69,1.47-2.28.74-3.42.68q-37.34-1.82-74.67-3.73c-7.73-.4-15.46-1-23.2-1.14-3.58,0-4.69-.87-4.67-4.69q.25-51.12,0-102.23c0-2.16,1.79-5.43-2.8-6-1.47-.19-.42-6.65,1.42-7.12,1.68-.43,1.43-1.47,1.43-2.52,0-17.18,0-34.36.07-51.54,0-2.45-1.11-3-3-2.61-3.39.59-3.89-1.07-3.83-4,.19-8.16.34-16.34,0-24.49-.21-4.28,1.78-5.24,5.26-5.37,5.91-.21,11.82-.58,17.73-.65a6.15,6.15,0,0,0,5-2.38q30.19-35,60.53-70a8.13,8.13,0,0,0,2.1-5.71q-.11-82.38,0-164.75c0-4-1.83-3.82-4.59-3.79q-82.17.72-164.33,1.35c-1.13,0-2.25,0-3.38,0-7,0-7.29-.18-6.68-6.93.32-3.6-1-8.29,1.36-10.52s7-.87,10.63-1c55.72-1.75,111.46-.42,167.19-.61,5.53,0,11.15.66,16.74.47,3.25-.11,2.42,2.07,2.28,3.69-1.36,16.16-.53,32.37-.89,48.55-.07,3.39.64,5.06,4.3,4.41,2.47-.44,2.68,1.07,2.65,3-.08,5.07-.19,10.14,0,15.2.13,2.86-.56,4.29-3.65,3.75-2.6-.46-3.31.66-3.31,3.25q.14,43.73.05,87.44c0,2.79,1.5,5.4.91,8.24,2.54,2.06,1.7,4.79,1.5,7.41-.81,6.09-.83,6-6.89,7.15-3,.58-6.15.48-9.16,1.2-.94.24-1.76.84-2.73,1-3.76,2.19-5.72,6.08-8.43,9.2q-25.75,29.65-51.4,59.39c-3.13,3.65-6.61,6-11.64,5.37a8.84,8.84,0,0,0-1.26,0c-8.57.27-10.64,1.85-10,10.23,1.71,22.6,1.55,45.22,1.65,67.85,0,4.73,1.69,6.36,6.49,6.39q31.47.2,63,0c4.78,0,6.78-1.63,7.09-6.55.65-10.24,2-8.51,10.43-8.61a54.24,54.24,0,0,0,7.65-.24c3-.46,4.49.83,4.81,3.73a55.53,55.53,0,0,1,.14,5.91c0,4.22,1.2,5.47,5.46,5.77,1.55.11,3.1,0,4.65,0h73.09c1,0,2,0,3,0,6.85.17,8.91,3.71,5.71,9.82a3.26,3.26,0,0,1-2.74,1.68,38.6,38.6,0,0,1-5.48.25q-40.77,0-81.54,0c-4.06,0-8,.24-10.7-4.08-1.61-2.54-6-2.19-7.67.54-2.1,3.49-5.14,3.51-8.38,3.52-21.41.07-42.82,0-64.22,0-10.24,0-10.77.52-10.77,10.7q0,42.87,0,85.76c0,7.93,1.13,9.45,9.16,9.83,11.94.57,23.87,1.38,35.81,1.8,14.34.51,28.65,1.69,43,2a16.13,16.13,0,0,0,10.82-3.7c27.26-21.14,54.52-42.28,82.08-63,7-5.28,10.25-10.86,9.4-19.48-.56-5.58.19-11.28-.2-16.89-.31-4.48,1.63-8.47,1.91-12.79.09-1.41,1.3-2.11,2.66-2.32a42,42,0,0,1,6.67-1c11,0,22-.21,32.91-.92a23.89,23.89,0,0,1,4.22.17c2,.23,3.69.89,3.63,3.25s-1.88,3-3.82,3.07c-9.14.22-18.24,1.24-27.41,1.1-14-.21-14-.05-14,14.1,0,4.08,0,8.16,0,12.25,0,1.5-.36,3.35,1.31,4.17s2.93-.6,4.12-1.5c12.35-9.35,24.76-18.63,36.78-28.39,5.93-4.81,12-6.71,19.62-6.7q155.89.32,311.79.13c7.64,0,15.22,1.17,22.89.92,4.08-.14,8.1-.56,12.15-1,3.31-.33,5.15-2.07,5.33-5.4.12-2.26.5-4.48.83-6.71a36.05,36.05,0,0,0,.94-9.2q0-62.8,0-125.61a41.23,41.23,0,0,0-1-9.6c-.68-4.28-3.33-6.09-7.5-6.63a110.27,110.27,0,0,0-25.16-.19c-2.24.22-4.48.26-6.72.26-103.74,0-207.48.28-311.22-.19-22.63-.1-45.29-.38-67.94-.67l-1.27,0c-5.78-.26-6.5-1-6.27-6.83C1511.21,625.73,1511.31,623,1512.48,620.49Z" transform="translate(0.5 0.5)"/><path class="cls-1" d="M1062.18,277.48h59.16c.37,1.83-1.08,2.62-1.87,3.61q-20.33,25.65-40.76,51.22c-1.31,1.64-2.8,3-1.27,5.46.58.92.17,2.47.16,3.74-.11,14.36-.17,28.72-.39,43.08a8.43,8.43,0,0,0,2.77,6.66q23.68,23.5,47.21,47.18c1,1,2.42,1.86,2.92,3.43-1,.95-2.18.54-3.23.54-19.85,0-39.71,0-59.56.07-2.9,0-4.2-.43-4.22-3.83q-.49-79-1.23-158a20.8,20.8,0,0,1,.19-2.09Z" transform="translate(0.5 0.5)"/><path d="M1492.29,481.74c0-27,.07-54.05-.08-81.07,0-3.39.94-4.34,4.21-4.13,4.2.28,8.44.15,12.66,0,2-.06,2.9.56,2.66,2.61a16.51,16.51,0,0,0,0,2.11q0,80.65.09,161.31c0,3.92-1,5.1-4.86,4.76a69.27,69.27,0,0,0-11,0c-2.93.2-3.81-.69-3.77-3.7.17-12.39.07-24.77.07-37.16Z" transform="translate(0.5 0.5)"/><path d="M1423.85,627.15l0-6.55,88.66-.11a6.64,6.64,0,0,1,0,6.83c-1.33,1.81-3.3,2-5.29,2q-39.15.18-78.31,0C1427,629.27,1424.85,629.48,1423.85,627.15Z" transform="translate(0.5 0.5)"/><path class="cls-2" d="M1211.76,360.47c0-16.46.11-32.92-.09-49.38,0-3.93,1.24-5.09,5.06-5,3.51.08,5.27.57,5.25,4.81q-.26,49.8,0,99.61c0,4.27-1.79,4.69-5.27,4.79-3.85.11-5.08-1.12-5-5C1211.86,393.68,1211.76,377.08,1211.76,360.47Z" transform="translate(0.5 0.5)"/><path d="M1338.22,321.4c-9.86,0-9.86,0-9.86-9.67,0-6.38,0-6.38,6.42-6.38,3.36,0,6.74.1,10.1,0,2.08-.09,3.08.41,3,2.75-.18,3.5-.17,7,0,10.53.1,2.24-.68,3-2.88,2.84S1340.47,321.4,1338.22,321.4Z" transform="translate(0.5 0.5)"/><path d="M1338.38,343.37c9.42,0,9.42,0,9.42,9.28,0,6.78,0,6.78-6.86,6.78-3.09,0-6.19-.15-9.27,0-2.49.16-3.57-.49-3.36-3.22a66.41,66.41,0,0,0,0-9.67c-.2-2.69.8-3.47,3.34-3.25C1333.87,343.53,1336.13,343.38,1338.38,343.37Z" transform="translate(0.5 0.5)"/><path d="M1338.09,397.45c-9.73,0-9.73,0-9.73-9.8a6.62,6.62,0,0,0,0-1.26c-.71-3.95.66-5.52,4.88-5.08a81.24,81.24,0,0,0,11.78.05c2.27-.1,3,.73,2.8,2.89a31.56,31.56,0,0,0,0,3.37C1347.8,397.45,1347.8,397.45,1338.09,397.45Z" transform="translate(0.5 0.5)"/><path d="M1369.77,294.08c0-7.32,0-7.32,6.3-7.32,7.22,0,7.22,0,7.22,7.25s0,7.11-6.52,7.11C1369.77,301.12,1369.77,301.12,1369.77,294.08Z" transform="translate(0.5 0.5)"/><path d="M1095.14,518.07a39.88,39.88,0,0,0,0,5.89c.58,3.81-.94,4.86-4.59,4.56-2.28-.18-3.19-.62-3.11-3.07.17-5.05.29-10.12,0-15.15-.23-3.56,1.91-2.91,4-3,2.34-.12,4.12,0,3.76,3.22A65.86,65.86,0,0,0,1095.14,518.07Z" transform="translate(0.5 0.5)"/><path class="cls-1" d="M1544.25,630.67c-8.44,0-16.87-.1-25.31.06-2.78,0-4-.44-3.79-3.62.54-9.26.82-18.54,1-27.81.06-2.9.77-4.12,4.06-4.13,17.29-.09,34.58-.39,51.87-.79,3.06-.07,4.21.55,4,3.89-.71,9.67-1.19,19.36-1.51,29.05-.09,2.84-1.13,3.45-3.74,3.41C1562,630.58,1553.11,630.67,1544.25,630.67Z" transform="translate(0.5 0.5)"/><path class="cls-3" d="M1925.91,642.48h12.62c2.81.42,1.54,2.64,1.55,4,.09,21.49.06,43,.06,64.48q0,36.45-.06,72.91c0,1.36,1.26,3.58-1.55,4h-12.62c-2.07-1.61-1.77-3.29-.15-5V652.57C1923.08,649,1923.14,645.46,1925.91,642.48Z" transform="translate(0.5 0.5)"/><path class="cls-1" d="M1324.15,459c-25.34,0-50.67-.08-76,.09-3.67,0-4.46-1-4.16-4.5.77-9.13.62-9.15,9.82-9.15q73.45,0,146.92-.09c3.87,0,4.75,1,4.36,4.71-.79,7.6-.61,7.7-8.33,7.71q-36.3.06-72.61,0Z" transform="translate(0.5 0.5)"/><path class="cls-3" d="M1407,633.36c2.84,1.26,5.84.6,8.76.67,2.63.06,4,1.08,3.85,3.78,0,.56,0,1.13,0,1.69q0,67.15,0,134.31c0,5.32-.24,5.53-5.4,5.58h-2.12c-5.86,0-6-.11-6-5.85q0-33.36,0-66.73,0-36.1-.09-72.22C1406.05,633.94,1406.14,633.34,1407,633.36Z" transform="translate(0.5 0.5)"/><path class="cls-1" d="M1419.9,538.11c0,24.2-.06,48.4.06,72.6,0,3.42-.43,5-4.5,4.75-8.5-.52-8.51-.26-8.51-9,0-47,0-94-.1-141,0-3.9,1-4.93,4.84-4.79,8.2.28,8.21.08,8.21,8.14Z" transform="translate(0.5 0.5)"/><path class="cls-1" d="M1125.64,459.16c-14.07,0-28.13-.07-42.2,0-2.74,0-3.58-.66-3.43-3.51.52-10.22.41-10.23,10.47-10.23,25.89,0,51.77,0,77.65-.06,3,0,4.13.59,4.09,3.89-.13,9.85,0,9.86-9.86,9.86Z" transform="translate(0.5 0.5)"/><path class="cls-4" d="M1412.53,458.3c-5.69,0-5.35,0-5.22-6.79.09-4.47,1.42-6,6-5.84,8,.21,7.52-.09,7.6,7.81C1421,459.71,1417.2,458.2,1412.53,458.3Z" transform="translate(0.5 0.5)"/><path class="cls-4" d="M1234.56,458.3c-6.87,0-6.87,0-6.3-6.52.51-5.86.51-5.86,6.49-6,7.53-.19,7.53-.19,6.93,7C1241.21,458.3,1241.21,458.3,1234.56,458.3Z" transform="translate(0.5 0.5)"/><path class="cls-5" d="M1413,797.14c-7,0-7,0-6.38-6.82.48-5.55.48-5.55,6.34-5.7,7.62-.19,7.62-.19,7,7.32C1419.51,797.14,1419.51,797.14,1413,797.14Z" transform="translate(0.5 0.5)"/><path class="cls-5" d="M1070.71,458.3c-6.93,0-6.93,0-6.34-6.86.47-5.52.47-5.52,6.37-5.67,7.58-.19,7.58-.19,7,7.37C1077.29,458.3,1077.29,458.3,1070.71,458.3Z" transform="translate(0.5 0.5)"/><path class="cls-1" d="M1413.81,630.67c-7,0-7,0-6.42-6.8.52-6.17.54-5.83,6.95-6.13,4.62-.21,6.44,1.22,5.57,5.79a3.29,3.29,0,0,0,0,.83C1420.38,630.67,1420.38,630.67,1413.81,630.67Z" transform="translate(0.5 0.5)"/><path class="cls-1" d="M1510,482.18c0,26.46-.07,52.92.08,79.39,0,3.41-1,4.45-4.22,4.07-3.86-.46-9,1.7-11.27-.9-1.9-2.23-.64-7.24-.64-11,0-50.25,0-100.5-.11-150.75,0-3.94,1.1-5.16,4.88-4.72,3.59.43,8.3-1.48,10.56.75s.68,6.94.68,10.55C1510.07,433.76,1510,458,1510,482.18Z" transform="translate(0.5 0.5)"/><path class="cls-1" d="M1213.44,360.55q0-24.06,0-48.13c0-2.25-.39-4.51,3.2-4.59s3.56,2.16,3.56,4.67q0,48.35,0,96.68c0,2.11.35,4.27-3,4.37-3.09.09-3.83-1.24-3.8-4,.1-10.28,0-20.55,0-30.82Z" transform="translate(0.5 0.5)"/><path class="cls-2" d="M1400.19,713.28c0,16.46-.12,32.93.08,49.39,0,3.93-1.24,5.09-5.06,5-3.5-.09-5.28-.56-5.26-4.8q.25-49.82,0-99.63c0-4.26,1.79-4.69,5.28-4.78,3.83-.11,5.08,1.1,5,5C1400.08,680.07,1400.19,696.67,1400.19,713.28Z" transform="translate(0.5 0.5)"/><path d="M1925.76,782.85l.15,5c0,.28-.1.56-.11.84-.12,3.2,1,7.45-.65,9.35-2,2.26-6.34.68-9.66.73-9.15.12-9.15,0-9.15-9.12,0-6.9,0-6.91,6.76-6.89C1917.32,782.78,1921.54,782.83,1925.76,782.85Z" transform="translate(0.5 0.5)"/><path d="M1925.91,642.48l-.15,10.09c-5.49,0-11,0-16.46.11-2,0-3.12-.33-3-2.73.18-3.65.12-7.31,0-11,0-1.85.62-2.46,2.44-2.42,4.36.1,8.73.21,13.08,0,3-.18,4.57.53,4,3.85A9.37,9.37,0,0,0,1925.91,642.48Z" transform="translate(0.5 0.5)"/><path class="cls-6" d="M1352.77,903.21c-1,2-3.32,2.11-5,3.19-1.35.89-2,.21-2.56-1-2.55-5.31-5.08-10.64-7.72-15.91-.71-1.41-.23-2.2,1-2.53,1.88-.5,4.19-3.45,5.49-1.3C1347.37,891.16,1349.84,897.17,1352.77,903.21Z" transform="translate(0.5 0.5)"/><path class="cls-1" d="M1391.74,712.86c0-16.19,0-32.37,0-48.56,0-2.7.55-4.3,3.72-4.08,2.09.14,3.1.83,3.06,3-.06,3.1,0,6.19,0,9.29q0,44.33,0,88.66c0,1.74,1,4.21-2.16,4.63s-4.65-.35-4.62-4C1391.83,745.51,1391.74,729.18,1391.74,712.86Z" transform="translate(0.5 0.5)"/><line class="cls-7" x1="100.5" y1="700.5" x2="100.5" y2="800.5"/><line class="cls-7" x1="2900.5" y1="700.5" x2="2900.5" y2="800.5"/><circle class="cls-8" cx="2900.5" cy="630.5" r="50"/><rect class="cls-8" x="50.5" y="580.5" width="100" height="100"/><text class="cls-9" transform="translate(50.5 856.07)">Data Composition <tspan class="cls-10" x="265" y="0">-1 </tspan></text><text class="cls-9" transform="translate(2695.43 856.07)">Data Composition<tspan class="cls-10" x="256.67" y="0"> </tspan></text><line class="cls-11" x1="100.56" y1="946.35" x2="2900.56" y2="946.35"/><line class="cls-7" x1="100.5" y1="800.5" x2="100.5" y2="996.35"/><line class="cls-7" x1="2900.5" y1="800.5" x2="2900.5" y2="996.35"/><text class="cls-9" transform="translate(1441.29 982.99)">50 days </text><line class="cls-11" x1="100.5" y1="996.35" x2="2900.5" y2="996.35"/><line class="cls-7" x1="100.5" y1="450.5" x2="100.5" y2="550.5"/><line class="cls-7" x1="100.5" y1="450.5" x2="200.5" y2="450.5"/><rect class="cls-8" x="200.5" y="120.5" width="600" height="350"/><rect class="cls-8" x="800.5" y="420.5" width="50" height="50"/><rect class="cls-8" x="1060.5" y="1090.5" width="400" height="100"/><line class="cls-7" x1="1012.37" y1="348.9" x2="1062.37" y2="348.9"/><line class="cls-7" x1="1012.37" y1="347.95" x2="1012.37" y2="1147.95"/><line class="cls-7" x1="1012.37" y1="1147.95" x2="1062.37" y2="1147.95"/><rect class="cls-12" x="1053.37" y="276.31" width="98.78" height="165.28"/><text class="cls-9" transform="translate(1062.37 1076.26)">now slice, <tspan class="cls-13" x="151.71" y="0">2021</tspan></text><text class="cls-14" transform="translate(1064.63 1240.31)">크기 : <tspan x="0" y="24">재료 : </tspan></text><rect class="cls-12" x="1320.88" y="265.31" width="98.78" height="140.68"/><line class="cls-7" x1="1358.79" y1="213.49" x2="1408.79" y2="213.49"/><line class="cls-7" x1="1358.79" y1="263.49" x2="1358.79" y2="213.49"/><text class="cls-9" transform="translate(1421.43 167.33)">sound for on illusion of time, <tspan class="cls-13" x="419.97" y="0">2021</tspan></text><text class="cls-14" transform="translate(1424.32 200.81)">길이 : ca. 8-10 분 <tspan x="0" y="24" xml:space="preserve">재료 :  </tspan><tspan class="cls-15" x="57.78" y="24">Meyer sound X-40, LFC-750, Custom Hardware </tspan><tspan x="487.9" y="24"> </tspan></text><rect class="cls-12" x="1457.05" y="380.16" width="89.07" height="212.68"/><line class="cls-7" x1="1546.12" y1="426.51" x2="1602.67" y2="426.51"/><rect class="cls-8" x="1600.5" y="360.5" width="400" height="100"/><text class="cls-9" transform="translate(1604.03 344.48)">notations, <tspan class="cls-13" x="151.66" y="0">2021</tspan></text><text class="cls-14" transform="translate(1606.29 508.53)">크기 : <tspan x="0" y="24">재료 : 제작 선반위의 8개의 드로잉 </tspan></text><rect class="cls-12" x="1381.88" y="633.16" width="44.44" height="160.66"/><rect class="cls-12" x="1434.83" y="622.22" width="520" height="188.87"/><line class="cls-7" x1="1956.12" y1="716.65" x2="2012.67" y2="716.65"/><text class="cls-9" transform="translate(2015.93 690.14)">sound for on illusion of time, <tspan class="cls-13" x="419.97" y="0">2021</tspan></text><text class="cls-14" transform="translate(2018.82 723.62)">길이 : ca. 8-10 분 <tspan x="0" y="24">재료 : GENELEC 8050, GENELEC 8010 * 2</tspan><tspan class="cls-15" x="363.38" y="24"> </tspan><tspan x="368.94" y="24"> </tspan></text><line class="cls-7" x1="1267.66" y1="750.5" x2="1381.55" y2="750.5"/><text class="cls-9" transform="translate(1070.09 749.67)">your no<tspan class="cls-16" x="110" y="0">w</tspan><tspan x="132.23" y="0">, </tspan><tspan class="cls-13" x="148.9" y="0">2021</tspan></text><text class="cls-14" transform="translate(1072.99 783.15)">크기 : <tspan x="0" y="24">재료 : 유리, GENELEC 8010</tspan></text><text class="cls-9" transform="translate(1530.19 832.38)">control <tspan x="0" y="36">room</tspan></text><text class="cls-9" transform="translate(2695.43 64.29)">Data Composition</text><text class="cls-14" transform="translate(2762.85 122.12)">2021. 01. 15 - 03. 05<tspan x="-45.02" y="24">세종문화회관 세종미술관 2관</tspan></text><text class="cls-14" transform="translate(2597.96 237.84)">어느덧 데이터는 인류에 무늬를 수놓고 있다.<tspan x="-18.46" y="24">우리의 삶과 관계하는 모든 손짓이 정보가 되어</tspan><tspan x="111.46" y="48">오늘의 세대를 이룩하고 있다. </tspan><tspan x="-29.34" y="72">우리는 생가하는 존재로서 오프라인에 실재하며,</tspan><tspan x="-17.6" y="96">동시에 데이터가 되어 온라인 공간에 존재한다.</tspan><tspan x="-9.34" y="144">Data Composition 에서 데이터는 시간이다.</tspan><tspan x="52.8" y="168">이 순간 당신에게 데이터는 무엇인가. </tspan></text><text x="0.5" y="0.5"/><text class="cls-14" transform="translate(2018.82 1038.08)">접속자의 글로벌 아이디 - 웹안에서의 바라보고 있는 공간 아이디</text><text class="cls-17" transform="translate(16.36 27.91)"><tspan xml:space="preserve">Data Composition, 2021 ©  GR</tspan><tspan class="cls-18" x="288.13" y="0">A</tspan><tspan x="300.73" y="0">YCODE, jiiiiin</tspan></text><text class="cls-9" transform="translate(50.5 1092.7)">Data Composition</text><text class="cls-14" transform="translate(51.95 1147.95)">2021. 01. 15 - 03. 05<tspan x="0" y="24">세종문화회관 세종미술관 2관</tspan></text><text class="cls-14" transform="translate(49.05 1250.5)">어느덧 데이터는 인류에 무늬를 수놓고 있다.<tspan x="0" y="24">우리의 삶과 관계하는 모든 손짓이 정보가 되어</tspan><tspan x="0" y="48">오늘의 세대를 이룩하고 있다. </tspan><tspan x="0" y="72">우리는 생가하는 존재로서 오프라인에 실재하며,</tspan><tspan x="0" y="96">동시에 데이터가 되어 온라인 공간에 존재한다.</tspan><tspan x="0" y="144">Data Composition 에서 데이터는 시간이다.</tspan><tspan x="0" y="168">이 순간 당신에게 데이터는 무엇인가. </tspan></text><rect class="cls-19" x="0.5" y="0.5" width="3000" height="1500"/></svg>